<svg xmlns="http://www.w3.org/2000/svg"><symbol id="explore" viewBox="0 0 64 64"><circle cx="32" cy="32" r="27" fill="#fff" stroke="#0b285c" stroke-width="4"/><circle cx="32" cy="32" r="19" fill="#ffc400"/><path d="M38 20l-5 14-14 5 5-14z" fill="#1267e8" stroke="#071b45" stroke-width="3"/></symbol><symbol id="learn" viewBox="0 0 64 64"><path d="M8 14h21c6 0 9 4 9 9v28c-3-4-7-6-12-6H8z" fill="#fff" stroke="#071b45" stroke-width="4"/><path d="M56 14H35c-6 0-9 4-9 9v28c3-4 7-6 12-6h18z" fill="#f1c44b" stroke="#071b45" stroke-width="4"/></symbol><symbol id="solve" viewBox="0 0 64 64"><circle cx="28" cy="28" r="18" fill="#21a8ee" stroke="#071b45" stroke-width="4"/><path d="M41 41l15 15" stroke="#071b45" stroke-width="7" stroke-linecap="round"/></symbol><symbol id="earn" viewBox="0 0 64 64"><circle cx="32" cy="32" r="25" fill="#ffc400" stroke="#071b45" stroke-width="4"/><text x="32" y="43" text-anchor="middle" font-family="Arial" font-size="30" font-weight="900" fill="#fff">₹</text></symbol><symbol id="master" viewBox="0 0 64 64"><path d="M32 5l8 17 19 2-14 13 4 19-17-9-17 9 4-19L5 24l19-2z" fill="#ffc400" stroke="#071b45" stroke-width="4"/></symbol><symbol id="xp" viewBox="0 0 64 64"><path d="M32 4l8 17 19 2-14 13 4 20-17-9-17 9 4-20L5 23l19-2z" fill="#ffc400" stroke="#071b45" stroke-width="4"/></symbol><symbol id="coin" viewBox="0 0 64 64"><circle cx="32" cy="32" r="25" fill="#ffb400" stroke="#071b45" stroke-width="4"/><text x="32" y="43" text-anchor="middle" font-family="Arial" font-size="30" font-weight="900" fill="#fff">₹</text></symbol><symbol id="silver" viewBox="0 0 64 64"><path d="M16 9h32l-5 15 9 9-20 25-20-25 9-9z" fill="#dbe3ed" stroke="#071b45" stroke-width="4"/><text x="32" y="39" text-anchor="middle" font-family="Arial" font-size="18" font-weight="900" fill="#526174">2</text></symbol><symbol id="gold" viewBox="0 0 64 64"><path d="M16 9h32l-5 15 9 9-20 25-20-25 9-9z" fill="#ffc400" stroke="#071b45" stroke-width="4"/><text x="32" y="39" text-anchor="middle" font-family="Arial" font-size="18" font-weight="900" fill="#8a5600">1</text></symbol><symbol id="platinum" viewBox="0 0 64 64"><path d="M7 24l25-18 25 18-25 34z" fill="#29bce8" stroke="#071b45" stroke-width="4"/><path d="M7 24h50L32 58z" fill="#83e7ff" opacity=".75"/></symbol><symbol id="trophy" viewBox="0 0 64 64"><path d="M18 9h28v17c0 12-6 20-14 20S18 38 18 26z" fill="#ffc400" stroke="#071b45" stroke-width="4"/><path d="M18 15H8v8c0 8 5 13 12 13M46 15h10v8c0 8-5 13-12 13" fill="none" stroke="#ffc400" stroke-width="6"/><path d="M25 46v9M39 46v9M19 57h26" stroke="#071b45" stroke-width="5"/></symbol><symbol id="teacher" viewBox="0 0 64 64"><circle cx="21" cy="23" r="10" fill="#78bd35"/><circle cx="43" cy="23" r="10" fill="#ffd3a4"/><path d="M5 57c1-13 8-20 16-20s15 7 16 20M27 57c1-13 8-20 16-20s15 7 16 20" fill="#20a15b" stroke="#071b45" stroke-width="3"/><path d="M32 5l26 12-26 12L6 17z" fill="#ffc400" stroke="#071b45" stroke-width="3"/></symbol><symbol id="progress" viewBox="0 0 64 64"><rect x="8" y="10" width="48" height="45" rx="5" fill="#fff" stroke="#071b45" stroke-width="4"/><path d="M17 45V32M29 45V22M41 45V15" stroke="#1267e8" stroke-width="7"/><path d="M15 48h35" stroke="#ffc400" stroke-width="4"/></symbol><symbol id="attempts" viewBox="0 0 64 64"><circle cx="32" cy="32" r="25" fill="#ff4b3e" stroke="#071b45" stroke-width="4"/><path d="M20 33l8 8 17-20" fill="none" stroke="#fff" stroke-width="6" stroke-linecap="round" stroke-linejoin="round"/></symbol><symbol id="insights" viewBox="0 0 64 64"><rect x="7" y="9" width="50" height="46" rx="5" fill="#e9edf5" stroke="#071b45" stroke-width="4"/><path d="M14 43l11-11 8 6 14-17" fill="none" stroke="#1267e8" stroke-width="5"/><circle cx="47" cy="21" r="4" fill="#ffc400"/></symbol></svg>